<svg version="1.1" id="Слой_1" xmlns="http://www.w3.org/2000/svg" xmlns:xlink="http://www.w3.org/1999/xlink" x="0px" y="0px" viewBox="0 0 48 48" style="enable-background:new 0 0 48 48;" xml:space="preserve">
  <path class="st0" d="M24,8.3c8.7,0,15.7,7.1,15.7,15.7S32.7,39.7,24,39.7S8.3,32.7,8.3,24S15.3,8.3,24,8.3 M24,3C12.4,3,3,12.4,3,24
    c0,11.6,9.4,21,21,21s21-9.4,21-21C45,12.4,35.6,3,24,3L24,3z" fill="#d22856"/>
  <path class="st0" d="M23.6,36.7c7,0,12.7-5.7,12.7-12.7c0-7-5.7-12.7-12.7-12.7" fill="#d22856"/>
</svg>
