<svg version="1.1" id="Слой_1" xmlns="http://www.w3.org/2000/svg" xmlns:xlink="http://www.w3.org/1999/xlink" x="0px" y="0px" viewBox="0 0 48 48" style="enable-background:new 0 0 48 48;" xml:space="preserve">
  <path class="st0" d="M34.8,21.2L13.6,0l-3.3,3.3L15.9,9L3.7,21.2c-1.4,1.4-1.4,3.7,0,5l13,13c0.7,0.7,1.5,1.1,2.5,1.1
  s1.8-0.4,2.5-1.1l13-13C36.2,24.9,36.2,22.5,34.8,21.2z M7.9,23.7l11.4-11.4l11.4,11.4H7.9z M40.6,27.3c0,0-4.7,5.1-4.7,8.3
  c0,2.6,2.1,4.7,4.7,4.7c2.6,0,4.7-2.1,4.7-4.7C45.4,32.4,40.6,27.3,40.6,27.3z" fill="#d22856"/>
  <rect y="45" class="st0" width="48" height="3" fill="#d22856"/>
</svg>
