<svg version="1.1" id="Слой_1" xmlns="http://www.w3.org/2000/svg" xmlns:xlink="http://www.w3.org/1999/xlink" x="0px" y="0px" viewBox="0 0 62 63" style="enable-background:new 0 0 62 63;" xml:space="preserve" width="62" height="63">
  <style type="text/css">
    .st0{fill:#E5E5E5;}
    .st1{fill:#D22856;}
  </style>
  <g>
    <rect x="0.2" y="0.1" class="st0" width="62" height="63"/>
  </g>
  <g>
    <g>
      <g>
        <path class="st1" d="M37.1,26.3c1.2-1,0.9-1.9-0.7-1.9H25.9c-1.6,0-1.9,0.8-0.7,1.9l3.7,3.2c1.2,1,3.2,1,4.4,0L37.1,26.3z"/>
      </g>
      <g>
        <path class="st1" d="M34.1,31.7c-1.2,1-2.2,1.9-2.2,1.9c0,0,0,0,0,0c-0.1,0.1-0.2,0.1-0.2,0.1c0,0-0.1,0-0.1,0
        c-0.1,0-0.2,0.1-0.3,0.1c0,0,0,0,0,0c0,0,0,0,0,0s0,0,0,0c0,0,0,0,0,0c-0.1,0-0.2,0-0.3-0.1c0,0-0.1,0-0.1,0
        c-0.1,0-0.2-0.1-0.2-0.1c0,0,0,0,0,0c0,0-1-0.9-2.2-1.9l-3.9-3.3c-1.2-1-2.2-0.6-2.2,1v6.5c0,1.6,1.3,2.9,2.8,2.9h12.3
        c1.6,0,2.8-1.3,2.8-2.9v-6.5c0-1.6-1-2.1-2.2-1L34.1,31.7z"/>
      </g>
    </g>
  </g>
</svg>
