<svg version="1.1" id="Слой_1" xmlns="http://www.w3.org/2000/svg" xmlns:xlink="http://www.w3.org/1999/xlink" x="0px" y="0px" viewBox="0 0 62 63" style="enable-background:new 0 0 62 63;" xml:space="preserve" width="62" height="63">
  <style type="text/css">
    .st0{fill:#E5E5E5;}
    .st1{fill:#D22856;stroke:#D22856;stroke-miterlimit:10;}
  </style>
  <rect x="0" class="st0" width="62" height="63"/>
  <path class="st1" d="M31,21.7c-3.5,0-7,0.6-8.3,1.9c-1.1,1-1.4,2.9-1.5,4c0,0,0,0.1,0,0.2c0,0.5,0.4,0.8,0.8,0.8
  c0.1,0,2-0.2,3.2-0.3c0,0,0.1,0,0.1,0c0.4,0,0.8-0.4,0.8-0.8l0-1.6c0-0.5,0.4-0.9,0.9-0.9h8c0.5,0,0.9,0.4,0.9,0.9l0,1.6
  c0,0.4,0.4,0.8,0.8,0.8c0,0,0.1,0,0.1,0c1.2,0.1,3.2,0.3,3.2,0.3c0.5,0,0.8-0.4,0.8-0.8c0-0.1,0-0.2,0-0.2c-0.1-1.2-0.5-3-1.5-4
  C38,22.3,34.5,21.7,31,21.7z M31,32.3c-0.9,0-1.6,0.7-1.6,1.6s0.7,1.6,1.6,1.6c0.9,0,1.6-0.7,1.6-1.6C32.6,33.1,31.9,32.3,31,32.3z
  M29.8,28.6v-1c0-0.6-0.5-1-1-1s-1,0.5-1,1v1l-5.5,5.9c-0.4,0.4-0.6,0.9-0.6,1.5v1.6c0,0.9,0.7,1.6,1.6,1.6h0.4v1c0,0.6,0.5,1,1,1
  c0.6,0,1-0.5,1-1v-1h10.7v1c0,0.6,0.5,1,1,1c0.6,0,1-0.5,1-1v-1h0.4c0.9,0,1.6-0.7,1.6-1.6V36c0-0.6-0.2-1.1-0.6-1.5l-5.5-5.9v-1
  c0-0.6-0.5-1-1-1c-0.6,0-1,0.5-1,1v1H29.8z M31,30.7c1.8,0,3.3,1.5,3.3,3.3c0,1.8-1.5,3.3-3.3,3.3c-1.8,0-3.3-1.5-3.3-3.3
  C27.7,32.1,29.2,30.7,31,30.7z"/>
</svg>
